<?xml version="1.0" encoding="UTF-8"?>
<svg xmlns="http://www.w3.org/2000/svg" viewBox="0 0 410 404">
  <defs>
    <linearGradient id="a" x1="82" x2="267" y1="-.5" y2="288" gradientUnits="userSpaceOnUse">
      <stop stop-color="#41D1FF" />
      <stop offset="1" stop-color="#BD34FE" />
    </linearGradient>
    <linearGradient id="b" x1="190.6" x2="236.5" y1="107.9" y2="286.2" gradientUnits="userSpaceOnUse">
      <stop stop-color="#FFD600" />
      <stop offset="1" stop-color="#F56600" />
    </linearGradient>
  </defs>
  <path fill="url(#a)" d="M399 59L215 388c-7 13-24 13-31 0L11 59c-8-13 2-30 17-29l176 15h2L382 30c15-1 25 16 17 29Z" />
  <path fill="url(#b)" d="M292 1L144 33c-10 2-14 14-7 21l34 35a16 16 0 0 0 11 5l91 2a2 2 0 0 1 2 2l3 91a16 16 0 0 0 5 11l38 36c7 7 19 3 21-7L368 83a16 16 0 0 0-12-19l-59-13 5-49C303 4 298-1 292 1Z" />
</svg>
